<svg xmlns="http://www.w3.org/2000/svg"  viewBox="0 0 100 100" width="100px" height="100px" baseProfile="basic"><path fill="#c7ede6" d="M87.215,56.71C88.35,54.555,89,52.105,89,49.5c0-6.621-4.159-12.257-10.001-14.478 C78.999,35.015,79,35.008,79,35c0-11.598-9.402-21-21-21c-9.784,0-17.981,6.701-20.313,15.757C36.211,29.272,34.638,29,33,29 c-7.692,0-14.023,5.793-14.89,13.252C12.906,43.353,9,47.969,9,53.5C9,59.851,14.149,65,20.5,65c0.177,0,0.352-0.012,0.526-0.022 C21.022,65.153,21,65.324,21,65.5C21,76.822,30.178,86,41.5,86c6.437,0,12.175-2.972,15.934-7.614C59.612,80.611,62.64,82,66,82 c4.65,0,8.674-2.65,10.666-6.518C77.718,75.817,78.837,76,80,76c6.075,0,11-4.925,11-11C91,61.689,89.53,58.727,87.215,56.71z"/><path fill="#fdfcef" d="M34.875,36.5c0,0,3.64,0,6.125,0s4.5-2.015,4.5-4.5c0-2.333-1.782-4.229-4.055-4.455 C41.467,27.364,41.5,27.187,41.5,27c0-2.485-2.015-4.5-4.5-4.5c-1.438,0-2.703,0.686-3.527,1.736 C33.333,21.6,31.171,19.5,28.5,19.5c-2.761,0-5,2.239-5,5c0,0.446,0.077,0.87,0.187,1.282C23.045,25.005,22.086,24.5,21,24.5 c-1.781,0-3.234,1.335-3.455,3.055C17.364,27.533,17.187,27.5,17,27.5c-2.485,0-4.5,2.015-4.5,4.5s2.015,4.5,4.5,4.5s9.5,0,9.5,0 h5.375V37h3V36.5z"/><path fill="#472b29" d="M28.5,19c-3.033,0-5.5,2.467-5.5,5.5c0,0.016,0,0.031,0,0.047C22.398,24.192,21.71,24,21,24 c-1.831,0-3.411,1.261-3.858,3.005C17.095,27.002,17.048,27,17,27c-2.757,0-5,2.243-5,5s2.243,5,5,5h14.875 c0.276,0,0.5-0.224,0.5-0.5s-0.224-0.5-0.5-0.5H17c-2.206,0-4-1.794-4-4s1.794-4,4-4c0.117,0,0.23,0.017,0.343,0.032l0.141,0.019 c0.021,0.003,0.041,0.004,0.062,0.004c0.246,0,0.462-0.185,0.495-0.437C18.232,26.125,19.504,25,21,25 c0.885,0,1.723,0.401,2.301,1.1c0.098,0.118,0.241,0.182,0.386,0.182c0.078,0,0.156-0.018,0.228-0.056 c0.209-0.107,0.314-0.346,0.254-0.573C24.054,25.218,24,24.852,24,24.5c0-2.481,2.019-4.5,4.5-4.5 c2.381,0,4.347,1.872,4.474,4.263c0.011,0.208,0.15,0.387,0.349,0.45c0.05,0.016,0.101,0.024,0.152,0.024 c0.15,0,0.296-0.069,0.392-0.192C34.638,23.563,35.779,23,37,23c2.206,0,4,1.794,4,4c0,0.117-0.017,0.23-0.032,0.343l-0.019,0.141 c-0.016,0.134,0.022,0.268,0.106,0.373c0.084,0.105,0.207,0.172,0.34,0.185C43.451,28.247,45,29.949,45,32c0,2.206-1.794,4-4,4 h-6.125c-0.276,0-0.5,0.224-0.5,0.5s0.224,0.5,0.5,0.5H41c2.757,0,5-2.243,5-5c0-2.397-1.689-4.413-4.003-4.877 C41.999,27.082,42,27.041,42,27c0-2.757-2.243-5-5-5c-1.176,0-2.293,0.416-3.183,1.164C33.219,20.76,31.055,19,28.5,19L28.5,19z"/><path fill="#472b29" d="M27,26c-1.403,0-2.609,0.999-2.913,2.341C23.72,28.119,23.301,28,22.875,28 c-1.202,0-2.198,0.897-2.353,2.068C20.319,30.022,20.126,30,19.937,30c-1.529,0-2.811,1.2-2.918,2.732 C17.01,32.87,17.114,32.99,17.251,33c0.006,0,0.012,0,0.018,0c0.13,0,0.24-0.101,0.249-0.232c0.089-1.271,1.151-2.268,2.419-2.268 c0.229,0,0.47,0.042,0.738,0.127c0.022,0.007,0.045,0.01,0.067,0.01c0.055,0,0.11-0.02,0.156-0.054 C20.962,30.537,21,30.455,21,30.375c0-1.034,0.841-1.875,1.875-1.875c0.447,0,0.885,0.168,1.231,0.473 c0.047,0.041,0.106,0.063,0.165,0.063c0.032,0,0.063-0.006,0.093-0.019c0.088-0.035,0.148-0.117,0.155-0.212 C24.623,27.512,25.712,26.5,27,26.5c0.208,0,0.425,0.034,0.682,0.107c0.023,0.007,0.047,0.01,0.07,0.01 c0.109,0,0.207-0.073,0.239-0.182c0.038-0.133-0.039-0.271-0.172-0.309C27.517,26.04,27.256,26,27,26L27,26z"/><path fill="#472b29" d="M40.883,27.5c-1.326,0-2.508,0.897-2.874,2.182c-0.038,0.133,0.039,0.271,0.172,0.309 C38.205,29.997,38.228,30,38.25,30c0.109,0,0.209-0.072,0.24-0.182C38.795,28.748,39.779,28,40.883,28 c0.117,0,0.23,0.014,0.342,0.029c0.012,0.002,0.023,0.003,0.035,0.003c0.121,0,0.229-0.092,0.246-0.217 c0.019-0.137-0.077-0.263-0.214-0.281C41.158,27.516,41.022,27.5,40.883,27.5L40.883,27.5z"/><path fill="#fff" d="M32.405,77H22.5c-0.276,0-0.5-0.224-0.5-0.5s0.224-0.5,0.5-0.5h9.905c0.276,0,0.5,0.224,0.5,0.5 S32.682,77,32.405,77z"/><path fill="#fff" d="M35.5,77h-1c-0.276,0-0.5-0.224-0.5-0.5s0.224-0.5,0.5-0.5h1c0.276,0,0.5,0.224,0.5,0.5 S35.777,77,35.5,77z"/><path fill="#fff" d="M40.491,79H31.5c-0.276,0-0.5-0.224-0.5-0.5s0.224-0.5,0.5-0.5h8.991c0.276,0,0.5,0.224,0.5,0.5 S40.767,79,40.491,79z"/><path fill="#fff" d="M29.5,79h-1c-0.276,0-0.5-0.224-0.5-0.5s0.224-0.5,0.5-0.5h1c0.276,0,0.5,0.224,0.5,0.5 S29.777,79,29.5,79z"/><path fill="#fff" d="M26.5,79h-2c-0.276,0-0.5-0.224-0.5-0.5s0.224-0.5,0.5-0.5h2c0.276,0,0.5,0.224,0.5,0.5 S26.777,79,26.5,79z"/><path fill="#fff" d="M32.5,81h-2c-0.276,0-0.5-0.224-0.5-0.5s0.224-0.5,0.5-0.5h2c0.276,0,0.5,0.224,0.5,0.5 S32.776,81,32.5,81z"/><path fill="#fff" d="M35.5,72c-0.177,0-0.823,0-1,0c-0.276,0-0.5,0.224-0.5,0.5c0,0.276,0.224,0.5,0.5,0.5 c0.177,0,0.823,0,1,0c0.276,0,0.5-0.224,0.5-0.5C36,72.224,35.776,72,35.5,72z"/><path fill="#fff" d="M35.5,74c-0.177,0-4.823,0-5,0c-0.276,0-0.5,0.224-0.5,0.5c0,0.276,0.224,0.5,0.5,0.5 c0.177,0,4.823,0,5,0c0.276,0,0.5-0.224,0.5-0.5C36,74.224,35.776,74,35.5,74z"/><path fill="#fff" d="M40.5,76c-0.177,0-2.823,0-3,0c-0.276,0-0.5,0.224-0.5,0.5c0,0.276,0.224,0.5,0.5,0.5 c0.177,0,2.823,0,3,0c0.276,0,0.5-0.224,0.5-0.5C41,76.224,40.776,76,40.5,76z"/><g><path fill="#fff" d="M69.5,21h-10c-0.276,0-0.5-0.224-0.5-0.5s0.224-0.5,0.5-0.5h10c0.276,0,0.5,0.224,0.5,0.5 S69.776,21,69.5,21z"/><path fill="#fff" d="M73.5,21h-2c-0.276,0-0.5-0.224-0.5-0.5s0.224-0.5,0.5-0.5h2c0.276,0,0.5,0.224,0.5,0.5 S73.776,21,73.5,21z"/><path fill="#fff" d="M78.5,23h-10c-0.276,0-0.5-0.224-0.5-0.5s0.224-0.5,0.5-0.5h10c0.276,0,0.5,0.224,0.5,0.5 S78.777,23,78.5,23z"/><path fill="#fff" d="M66.5,23h-1c-0.276,0-0.5-0.224-0.5-0.5s0.224-0.5,0.5-0.5h1c0.276,0,0.5,0.224,0.5,0.5 S66.776,23,66.5,23z"/><path fill="#fff" d="M63.375,23H61.5c-0.276,0-0.5-0.224-0.5-0.5s0.224-0.5,0.5-0.5h1.875c0.276,0,0.5,0.224,0.5,0.5 S63.651,23,63.375,23z"/><path fill="#fff" d="M72.5,19h-5c-0.276,0-0.5-0.224-0.5-0.5s0.224-0.5,0.5-0.5h5c0.276,0,0.5,0.224,0.5,0.5 S72.777,19,72.5,19z"/><path fill="#fff" d="M69.5,25h-2c-0.276,0-0.5-0.224-0.5-0.5s0.224-0.5,0.5-0.5h2c0.276,0,0.5,0.224,0.5,0.5 S69.776,25,69.5,25z"/></g><path fill="#1e65d6" d="M31.805,37.803c-0.651-0.36-1.464-0.013-1.646,0.709c-0.602,2.403-5.326,26.176,5.002,19.29 c6.114-4.076,17.214-13.771,22.952-18.362c1.267-1.013,16.067-13.771,17.214-5.738c1.308,9.159,1.148,22.952,0,29.838 c-0.287,1.721-2.295,8.033-9.181,3.443c-2.7-1.801-13.771-12.624-13.771-12.624c-1.026-0.71,2.783-3.204,3.443-3.443 c3.088-1.115,6.834,6.89,12.694,8.887c0.621,0.211,1.278-0.117,1.469-0.745c0.333-1.091,0.756-3.04,0.756-5.847 c0-5.738,1.289-14.919-3.443-14.919c-3.443,0-28.69,21.805-33.281,25.247c0,0-7.836,5.696-9.181,0 c-1.713-7.26-1.148-21.805,0-29.838c0,0,1.148-5.738,8.033-1.148c0,0,13.771,9.181,14.919,10.328 c1.014,1.014-3.443,4.59-4.59,3.443l-1.592-1.592c-0.404-0.404-1.043-0.449-1.5-0.107l-7.466,5.6 c-0.379,0.283-0.918,0.014-0.918-0.459v-2.34c0-0.698,0.317-1.356,0.862-1.793l3.818-3.055c0.562-0.45,0.584-1.314,0.024-1.767 C34.922,39.602,33.025,38.479,31.805,37.803z"/><path fill="#472b29" d="M70.554,69.327c-1.431,0-3.035-0.588-4.795-1.761c-2.675-1.784-13.042-11.895-13.839-12.673 c-0.312-0.244-0.46-0.606-0.408-1.004c0.191-1.478,3.664-3.484,4.068-3.63c1.996-0.723,3.918,1.257,6.146,3.547 c2.01,2.065,4.288,4.407,7.013,5.335c0.122,0.042,0.25,0.034,0.357-0.021c0.073-0.038,0.171-0.114,0.216-0.264 c0.331-1.085,0.726-2.945,0.726-5.644c0-0.984,0.038-2.069,0.076-3.191c0.136-3.899,0.304-8.752-1.308-10.421 c-0.395-0.408-0.889-0.606-1.511-0.606c-2.304,0-18.236,13.138-25.894,19.451c-3.225,2.659-5.771,4.759-6.968,5.656 c-0.513,0.372-5.026,3.549-8.039,2.434c-1.145-0.424-1.899-1.378-2.243-2.833c-1.752-7.426-1.132-22.25-0.012-30.098 c0.026-0.133,0.497-2.383,2.529-3.225c1.719-0.714,3.933-0.175,6.586,1.594c1.415,0.944,13.862,9.253,15.025,10.416 c0.187,0.187,0.578,0.717,0.182,1.605c-0.226,0.505-0.644,0.982-0.954,1.292c-1.227,1.227-3.615,2.725-4.808,1.536l-1.592-1.592 c-0.155-0.156-0.406-0.175-0.585-0.042l-7.467,5.6c-0.39,0.291-0.899,0.338-1.334,0.12c-0.435-0.217-0.704-0.654-0.704-1.139v-2.34 c0-0.915,0.41-1.768,1.125-2.34l3.817-3.054c0.108-0.087,0.171-0.216,0.171-0.355c0-0.075-0.019-0.216-0.149-0.322 c-1.435-1.158-3.248-2.239-4.517-2.943l0,0c-0.167-0.091-0.311-0.053-0.385-0.02c-0.071,0.031-0.198,0.11-0.243,0.288 c-0.906,3.614-3.1,17.103,0.107,19.364c0.831,0.588,2.121,0.311,3.828-0.828c4.231-2.82,11.027-8.486,16.489-13.038 c2.401-2.002,4.67-3.893,6.414-5.288l0.333-0.273c7.765-6.412,13.126-9.114,15.949-8.02c1.147,0.444,1.841,1.455,2.062,3.003 c1.361,9.53,1.091,23.487-0.003,30.052c-0.068,0.412-0.754,4.063-3.587,5.29C71.845,69.2,71.218,69.327,70.554,69.327z M52.957,53.948c1.069,1.042,11.091,10.794,13.579,12.453c2.155,1.437,3.952,1.863,5.339,1.26c2.191-0.949,2.74-4.102,2.763-4.236 c1.077-6.464,1.341-20.22-0.003-29.624c-0.146-1.024-0.532-1.645-1.182-1.896c-1.046-0.404-4.557-0.458-14.552,7.794l-0.35,0.287 c-1.733,1.386-3.997,3.273-6.393,5.271c-5.487,4.574-12.315,10.265-16.608,13.127c-2.238,1.492-4.06,1.762-5.413,0.807 c-4.707-3.32-0.701-20.676-0.657-20.85c0.14-0.555,0.52-1.004,1.044-1.231c0.525-0.229,1.116-0.199,1.619,0.08h0.001 c1.316,0.73,3.204,1.857,4.718,3.079c0.428,0.346,0.671,0.861,0.67,1.415c-0.002,0.565-0.256,1.092-0.696,1.444l-3.817,3.054 c-0.381,0.305-0.6,0.759-0.6,1.247v2.087l7.265-5.449c0.729-0.548,1.768-0.474,2.415,0.171l1.592,1.592 c0.05,0.032,0.427,0.08,1.222-0.342c1.271-0.674,2.221-1.769,2.314-2.17c-1.111-0.996-9.356-6.586-14.749-10.181 c-2.204-1.469-4.022-1.976-5.263-1.47c-1.341,0.548-1.692,2.159-1.696,2.175c-1.098,7.696-1.717,22.279-0.004,29.537 c0.232,0.984,0.679,1.587,1.366,1.842c1.958,0.733,5.52-1.375,6.722-2.248c1.162-0.872,3.697-2.962,6.908-5.61 c15.551-12.823,24.425-19.771,26.784-19.771c1.008,0,1.854,0.348,2.518,1.034c2.024,2.096,1.859,6.847,1.7,11.442 c-0.038,1.105-0.075,2.174-0.075,3.143c0,2.872-0.428,4.876-0.786,6.051c-0.146,0.482-0.472,0.874-0.917,1.102 c-0.447,0.23-0.963,0.266-1.447,0.101c-3.043-1.037-5.445-3.506-7.564-5.685c-1.812-1.861-3.521-3.618-4.667-3.207 C55.543,51.761,53.368,53.26,52.957,53.948z"/><g><path fill="#fdfcef" d="M82.5,76.5c0,0,1.567,0,3.5,0s3.5-1.567,3.5-3.5c0-1.781-1.335-3.234-3.055-3.455 C86.473,69.366,86.5,69.187,86.5,69c0-1.933-1.567-3.5-3.5-3.5c-1.032,0-1.95,0.455-2.59,1.165 c-0.384-1.808-1.987-3.165-3.91-3.165c-2.209,0-4,1.791-4,4c0,0.191,0.03,0.374,0.056,0.558C72.128,67.714,71.592,67.5,71,67.5 c-1.228,0-2.245,0.887-2.455,2.055C68.366,69.527,68.187,69.5,68,69.5c-1.933,0-3.5,1.567-3.5,3.5s1.567,3.5,3.5,3.5s7.5,0,7.5,0 V77h7V76.5z"/><path fill="#472b29" d="M84.25,72C84.112,72,84,71.888,84,71.75c0-1.223,0.995-2.218,2.218-2.218 c0.034,0.009,0.737-0.001,1.244,0.136c0.133,0.036,0.212,0.173,0.176,0.306c-0.036,0.134-0.173,0.213-0.306,0.176 c-0.444-0.12-1.1-0.12-1.113-0.118c-0.948,0-1.719,0.771-1.719,1.718C84.5,71.888,84.388,72,84.25,72z"/><circle cx="77.5" cy="76.5" r=".5" fill="#472b29"/><path fill="#472b29" d="M86,77h-3.5c-0.276,0-0.5-0.224-0.5-0.5s0.224-0.5,0.5-0.5H86c1.654,0,3-1.346,3-3 c0-1.496-1.125-2.768-2.618-2.959c-0.134-0.018-0.255-0.088-0.336-0.196s-0.115-0.244-0.094-0.377C85.975,69.314,86,69.16,86,69 c0-1.654-1.346-3-3-3c-0.85,0-1.638,0.355-2.219,1c-0.125,0.139-0.321,0.198-0.5,0.148c-0.182-0.049-0.321-0.195-0.36-0.379 C79.58,65.165,78.141,64,76.5,64c-1.93,0-3.5,1.57-3.5,3.5c0,0.143,0.021,0.28,0.041,0.418c0.029,0.203-0.063,0.438-0.242,0.54 c-0.179,0.102-0.396,0.118-0.556-0.01C71.878,68.155,71.449,68,71,68c-0.966,0-1.792,0.691-1.963,1.644 c-0.048,0.267-0.296,0.446-0.569,0.405C68.314,70.025,68.16,70,68,70c-1.654,0-3,1.346-3,3s1.346,3,3,3h7.5 c0.276,0,0.5,0.224,0.5,0.5S75.776,77,75.5,77H68c-2.206,0-4-1.794-4-4s1.794-4,4-4c0.059,0,0.116,0.002,0.174,0.006 C68.588,67.82,69.711,67,71,67c0.349,0,0.689,0.061,1.011,0.18C72.176,64.847,74.126,63,76.5,63c1.831,0,3.466,1.127,4.153,2.774 C81.333,65.276,82.155,65,83,65c2.206,0,4,1.794,4,4c0,0.048-0.001,0.095-0.004,0.142C88.739,69.59,90,71.169,90,73 C90,75.206,88.206,77,86,77z"/><path fill="#472b29" d="M80.5,76c-0.159,0-0.841,0-1,0c-0.276,0-0.5,0.224-0.5,0.5c0,0.276,0.224,0.5,0.5,0.5 c0.159,0,0.841,0,1,0c0.276,0,0.5-0.224,0.5-0.5C81,76.224,80.776,76,80.5,76z"/></g><path fill="#472b29" d="M27.812,68.972v-1c2.395,0,5.038-1.43,6.401-2.282c0.232-0.145,0.543-0.076,0.688,0.159 c0.146,0.234,0.075,0.542-0.159,0.689C33.289,67.446,30.455,68.971,27.812,68.972z M36.696,64.991 c-0.146,0-0.292-0.064-0.391-0.188c-0.173-0.216-0.137-0.531,0.079-0.703c0.516-0.412,1.119-0.901,1.796-1.455 c0.213-0.174,0.528-0.144,0.703,0.071c0.175,0.214,0.144,0.529-0.07,0.704c-0.681,0.556-1.286,1.047-1.806,1.461 C36.916,64.956,36.806,64.991,36.696,64.991z M40.521,61.873c-0.144,0-0.287-0.062-0.386-0.182 c-0.176-0.213-0.146-0.528,0.068-0.704l2.234-1.841c1.295-1.068,2.895-2.387,4.656-3.827c0.213-0.174,0.529-0.144,0.703,0.071 c0.175,0.214,0.144,0.529-0.07,0.704c-1.76,1.439-3.358,2.757-4.653,3.824l-2.235,1.842C40.746,61.835,40.634,61.873,40.521,61.873 z M78.238,59.944c-0.015,0-0.029,0-0.044-0.002c-0.275-0.023-0.479-0.266-0.455-0.541c0.132-1.527,0.233-3.163,0.302-4.862 c0.012-0.275,0.253-0.485,0.521-0.479c0.275,0.011,0.49,0.244,0.479,0.52c-0.07,1.714-0.173,3.365-0.306,4.907 C78.713,59.747,78.494,59.944,78.238,59.944z M78.612,52.893c-0.004,0-0.008,0-0.013,0c-0.275-0.007-0.494-0.236-0.487-0.512 c0.107-4.326,0.017-8.727-0.263-12.728c-0.019-0.275,0.188-0.514,0.464-0.534c0.268-0.011,0.515,0.188,0.534,0.464 c0.281,4.032,0.373,8.465,0.265,12.822C79.105,52.677,78.883,52.893,78.612,52.893z"/></svg>