<?xml version="1.0" standalone="no"?>
<!DOCTYPE svg PUBLIC "-//W3C//DTD SVG 20010904//EN"
 "http://www.w3.org/TR/2001/REC-SVG-20010904/DTD/svg10.dtd">
<svg version="1.0" xmlns="http://www.w3.org/2000/svg"
 width="606.000000pt" height="166.000000pt" viewBox="0 0 606.000000 166.000000"
 preserveAspectRatio="xMidYMid meet">

<g transform="translate(0.000000,166.000000) scale(0.100000,-0.100000)"
fill="#000000" stroke="none">
<path d="M5200 1065 l0 -385 70 0 70 0 0 385 0 385 -70 0 -70 0 0 -385z"/>
<path d="M2000 1045 l0 -365 190 0 190 0 0 55 0 55 -120 0 -120 0 0 310 0 310
-70 0 -70 0 0 -365z"/>
<path d="M225 1297 c-52 -51 -71 -110 -59 -177 11 -56 37 -63 83 -24 43 36 61
74 61 129 0 44 -22 115 -36 115 -4 0 -26 -19 -49 -43z"/>
<path d="M2637 1256 c-64 -18 -116 -61 -151 -127 -24 -44 -31 -69 -34 -135
-10 -189 92 -314 255 -314 71 0 113 14 159 53 18 15 35 27 38 27 3 0 6 -18 6
-40 l0 -40 65 0 65 0 0 290 0 290 -65 0 -65 0 0 -34 c0 -44 -12 -52 -36 -25
-49 54 -154 79 -237 55z m160 -117 c66 -25 106 -88 106 -169 0 -92 -53 -161
-133 -175 -57 -10 -127 26 -157 80 -25 44 -31 124 -12 172 30 80 119 121 196
92z"/>
<path d="M3470 1261 c-42 -9 -77 -26 -107 -54 l-23 -20 0 36 0 37 -70 0 -70 0
0 -290 0 -291 68 3 67 3 5 195 c5 209 9 223 61 254 34 20 101 21 140 0 57 -29
69 -75 69 -276 l0 -178 65 0 65 0 0 208 c0 196 -1 210 -24 257 -13 28 -32 58
-42 67 -44 39 -140 62 -204 49z"/>
<path d="M4067 1260 c-127 -32 -207 -144 -207 -290 0 -174 110 -290 276 -290
39 0 91 7 115 15 53 18 121 83 144 138 l15 37 -71 0 c-71 0 -72 -1 -104 -37
-31 -36 -36 -38 -93 -38 -51 0 -65 4 -87 25 -39 36 -55 80 -55 152 0 115 52
178 146 178 42 0 51 -4 86 -40 l38 -41 70 3 70 3 -24 50 c-13 28 -34 60 -47
72 -59 54 -189 84 -272 63z"/>
<path d="M5647 1256 c-64 -18 -116 -61 -151 -127 -24 -44 -31 -69 -34 -135
-10 -189 92 -314 255 -314 71 0 113 14 159 53 18 15 35 27 38 27 3 0 6 -18 6
-40 l0 -40 70 0 70 0 0 290 0 290 -70 0 -70 0 0 -40 c0 -45 -8 -49 -36 -19
-49 54 -153 79 -237 55z m178 -126 c103 -50 123 -205 37 -291 -49 -48 -103
-58 -165 -31 -60 27 -90 71 -95 143 -5 73 1 99 35 140 50 59 117 73 188 39z"/>
<path d="M4625 1213 c-85 -44 -129 -127 -129 -243 0 -124 55 -217 159 -266 97
-46 252 -27 323 39 43 39 74 116 78 187 l3 65 -12 -55 -12 -55 -2 50 c-4 61
-22 135 -34 135 -5 0 -6 -12 -3 -27 5 -20 -5 -10 -33 32 -70 107 -147 155
-248 154 -35 0 -73 -6 -90 -16z m243 -90 c49 -36 66 -70 70 -136 7 -107 -47
-181 -140 -193 -105 -13 -184 91 -163 216 15 87 84 145 164 137 24 -3 55 -13
69 -24z"/>
<path d="M914 571 c-64 -29 -92 -66 -120 -161 -33 -110 -61 -152 -120 -180
-44 -22 -54 -23 -181 -17 -183 9 -207 -5 -137 -83 51 -57 151 -103 231 -108
l64 -4 -6 69 c-9 89 4 111 88 149 57 25 73 28 182 28 108 1 124 3 158 24 51
33 70 72 65 138 -6 65 -43 118 -102 145 -51 23 -71 23 -122 0z"/>
</g>
</svg>
